<svg width="40" height="40" viewBox="0 0 40 40" fill="none" xmlns="http://www.w3.org/2000/svg">
<rect width="40" height="40" rx="20" fill="white" fill-opacity="0.8"/>
<rect x="1" y="1" width="38" height="38" rx="19" stroke="#394867" stroke-opacity="0.7" stroke-width="2"/>
<path d="M10.5 19.5V15.5C10.5 14.3954 11.3954 13.5 12.5 13.5H19.5M10.5269 27.829C10.6838 28.777 11.5075 29.5 12.5 29.5H24.5C25.6046 29.5 26.5 28.6046 26.5 27.5V23.6901M10.5269 27.829C10.5092 27.722 10.5 27.6121 10.5 27.5V24.5M10.5269 27.829L14.3476 24.0083C15.0276 23.4133 16.0222 23.3481 16.774 23.8494L17.2832 24.1888C18.0078 24.6719 18.9619 24.6305 19.642 24.0864L22.2901 21.9679C22.9651 21.4279 23.9053 21.3855 24.6228 21.8484C24.7023 21.8997 24.7731 21.9632 24.84 22.0301L26.5 23.6901M26.5 23.6901L26.5 20.5M26.5 16.5V13.5M26.5 10.5V13.5M26.5 13.5H23.5H29.5M17.5 18.5C17.5 19.6046 16.6046 20.5 15.5 20.5C14.3954 20.5 13.5 19.6046 13.5 18.5C13.5 17.3954 14.3954 16.5 15.5 16.5C16.6046 16.5 17.5 17.3954 17.5 18.5Z" stroke="#394867" stroke-width="2" stroke-linecap="round" stroke-linejoin="round"/>
</svg>
